# xmcd
#
# Track frame offsets:
#	150
#	33342
#	67335
#	97322
#	139907
#	162595
#	203255
#	252167
#	285895
#
# Disc length: 4259 seconds
#
# Revision: 1
# Processed by: cddbd v1.5.2PL0 Copyright (c) Steve Scherf et al.
# Submitted via: audiograbber 1.83.01
#
DISCID=8210a109
DTITLE=Freddie King - Texas Flyer 1974 - 1976 Disc 5
DYEAR=2010
DGENRE=Blues
TTITLE0=Signals Of Love ( Live )
TTITLE1=Woman Across The River ( Live )
TTITLE2=Boogie Funk ( Live )
TTITLE3=Meet Me In The Morning ( Live )
TTITLE4=Feeling Alright ( Live )
TTITLE5=Hide Away - The Mojo ( Live )
TTITLE6=Have You Ever Loved A Woman ( Live )
TTITLE7=Little Bluebird ( Live )
TTITLE8=Farther Up The Road ( Live 1976 )
EXTD=
EXTT0=
EXTT1=
EXTT2=
EXTT3=
EXTT4=
EXTT5=
EXTT6=
EXTT7=
EXTT8=
PLAYORDER=
